<svg width="25" height="23" viewBox="0 0 25 23" fill="none" xmlns="http://www.w3.org/2000/svg">
<path fill-rule="evenodd" clip-rule="evenodd" d="M7.87992 15.7598C12.2319 15.7598 15.7598 12.2319 15.7598 7.87992C15.7598 3.52796 12.2319 0 7.87992 0C3.52796 0 0 3.52796 0 7.87992C0 12.2319 3.52796 15.7598 7.87992 15.7598ZM7.87981 14.5476C11.5622 14.5476 14.5474 11.5624 14.5474 7.87994C14.5474 4.19751 11.5622 1.21231 7.87981 1.21231C4.19738 1.21231 1.21219 4.19751 1.21219 7.87994C1.21219 11.5624 4.19738 14.5476 7.87981 14.5476Z" fill="#006CCF"/>
<rect x="12.729" y="12.3898" width="1.18169" height="14.3057" transform="rotate(-47.6274 12.729 12.3898)" fill="#006CCF"/>
</svg>
