<svg width="20" height="20" viewBox="0 0 20 20" fill="none" xmlns="http://www.w3.org/2000/svg">
<rect width="20" height="20" rx="5" fill="white"/>
<path d="M9.83789 11.5664L7.7168 15H6.11719L8.53125 11.2441C7.4375 10.8652 6.89062 10.0684 6.89062 8.85352C6.89062 8.06836 7.16211 7.46875 7.70508 7.05469C8.24805 6.64062 9.04688 6.43359 10.1016 6.43359H12.6738V15H11.2676V11.5664H9.83789ZM11.2676 7.60547H10.1543C9.56445 7.60547 9.11133 7.71094 8.79492 7.92188C8.48242 8.12891 8.32617 8.46875 8.32617 8.94141C8.32617 9.40234 8.47852 9.76172 8.7832 10.0195C9.08789 10.2773 9.56055 10.4062 10.2012 10.4062H11.2676V7.60547Z" fill="#454545"/>
</svg>
